<?xml version="1.0" encoding="utf-8"?>
<svg xmlns="http://www.w3.org/2000/svg" viewBox="0 0 500 350" xmlns:bx="https://boxy-svg.com" width="500px" height="350px"><defs><bx:export><bx:file format="svg" path="calc-logo-eye-align.svg"/></bx:export><filter id="drop-shadow-filter-0" bx:preset="drop-shadow 1 10 10 0 0.5 rgba(0,0,0,0.3)" color-interpolation-filters="sRGB" x="-50%" y="-50%" width="200%" height="200%"><feGaussianBlur in="SourceAlpha" stdDeviation="0"/><feOffset dx="10" dy="10"/><feComponentTransfer result="offsetblur"><feFuncA id="spread-ctrl" type="linear" slope="1"/></feComponentTransfer><feFlood flood-color="rgba(0,0,0,0.3)"/><feComposite in2="offsetblur" operator="in"/><feMerge><feMergeNode/><feMergeNode in="SourceGraphic"/></feMerge></filter><filter id="drop-shadow-filter-1" bx:preset="drop-shadow 1 10 10 0 0.5 rgba(0,0,0,0.3)" color-interpolation-filters="sRGB" x="-50%" y="-50%" width="200%" height="200%"><feGaussianBlur in="SourceAlpha" stdDeviation="0"/><feOffset dx="10" dy="10"/><feComponentTransfer result="offsetblur"><feFuncA id="spread-ctrl" type="linear" slope="1"/></feComponentTransfer><feFlood flood-color="rgba(0,0,0,0.3)"/><feComposite in2="offsetblur" operator="in"/><feMerge><feMergeNode/><feMergeNode in="SourceGraphic"/></feMerge></filter></defs><g transform="matrix(1, 0, 0, 1, 0, -75.000015)"><rect x="404.034" y="210.856" width="46.824" height="141.087" style="stroke: rgb(0, 0, 0); stroke-width: 0px; fill: rgb(0, 137, 255); filter: url(&quot;#drop-shadow-filter-1&quot;);"/><ellipse style="stroke: rgb(0, 0, 0); paint-order: fill; stroke-width: 0px; fill: rgb(255, 244, 0);" cx="165.215" cy="249.4" rx="104.457" ry="104.457"/><g style="filter: url(&quot;#drop-shadow-filter-0&quot;);" transform="matrix(1, 0, 0, 1, 0, 75.000015)"><rect x="466.868" y="72.183" width="50.591" height="205.965" style="stroke: rgb(0, 0, 0); stroke-width: 0px; fill: rgb(0, 137, 255); filter: none;"/><g><rect x="341.12" y="173.541" width="47.84" height="81.974" style="stroke: rgb(0, 0, 0); stroke-width: 0px; fill: rgb(0, 137, 255); filter: none;"/><g transform="matrix(1.22305, 0, 0, 1.22305, 50.076851, -107.745926)" style="filter: none;"><path class="st0" d="M 467.507 181.333 C 457.738 158.31 441.509 138.773 421.049 124.944 C 410.868 118.071 399.603 112.604 387.513 108.876 C 375.504 105.067 362.671 103.078 349.425 103.078 C 332.443 103.078 316.131 106.394 301.228 112.443 C 299.982 112.935 298.826 113.429 297.67 114.011 C 284.254 119.89 271.995 128.171 261.482 138.028 C 258.086 141.255 254.859 144.651 251.624 148.46 C 245.915 155.002 240.036 162.539 234.319 170.156 C 233.162 171.724 231.917 173.382 230.761 174.96 C 227.615 179.262 197.549 223.318 192.252 231.186 C 189.6 235.156 186.454 239.628 183.057 244.513 C 182.313 245.589 181.489 246.753 180.664 247.909 C 175.028 255.94 168.736 264.39 162.938 271.846 C 160.043 275.566 157.14 279.043 154.657 281.946 C 152.094 284.922 149.773 287.324 148.115 288.9 C 140.999 295.604 132.629 301.071 123.443 304.799 C 114.249 308.527 104.229 310.597 93.627 310.597 C 86.341 310.597 79.305 309.601 72.683 307.782 C 69.287 306.869 65.971 305.712 62.744 304.305 C 48.496 298.337 36.325 288.237 27.794 275.565 C 23.492 269.193 20.095 262.238 17.775 254.782 C 15.542 247.326 14.217 239.466 14.217 231.185 C 14.217 220.171 16.457 209.82 20.427 200.293 C 26.476 186.053 36.576 173.964 49.248 165.351 C 55.62 161.041 62.574 157.733 70.03 155.412 C 77.478 153.091 85.346 151.774 93.627 151.774 C 104.229 151.854 114.249 153.844 123.443 157.564 C 132.63 161.372 140.999 166.758 148.115 173.462 C 149.773 175.039 156.106 181.546 158.669 184.449 C 163.141 189.665 164.198 190.596 169.503 197.64 C 171.573 200.454 174.289 204.688 176.359 207.583 C 184.308 195.995 197.799 175.952 205.085 165.431 C 203.848 163.773 202.603 162.124 201.365 160.466 C 198.049 156.236 194.734 152.185 191.427 148.457 C 188.111 144.648 184.965 141.252 181.569 138.025 C 170.143 127.253 156.647 118.48 141.823 112.439 C 126.919 106.39 110.601 103.074 93.627 103.074 C 75.99 103.074 59.097 106.64 43.7 113.182 C 20.678 122.87 1.213 139.1 -12.616 159.551 C -19.489 169.741 -24.948 181.078 -28.757 193.087 C -32.484 205.18 -34.473 217.933 -34.473 231.187 C -34.473 248.824 -30.915 265.717 -24.453 281.033 C -14.685 304.137 1.545 323.602 21.916 337.43 C 32.186 344.304 43.451 349.762 55.54 353.571 C 67.548 357.299 80.382 359.288 93.628 359.288 C 110.602 359.288 126.921 355.972 141.824 349.932 C 156.648 343.883 170.063 335.108 181.49 324.426 L 181.57 324.345 C 184.967 321.199 188.113 317.714 191.428 313.905 C 197.137 307.363 203.016 299.834 208.733 292.216 C 209.89 290.639 211.135 289.062 212.291 287.493 C 215.437 283.102 256.598 222.735 259.987 217.851 C 260.739 216.775 261.564 215.619 262.388 214.455 C 268.025 206.505 274.316 197.975 280.114 190.527 C 283.009 186.799 285.912 183.321 288.395 180.426 C 290.959 177.442 293.28 175.04 294.937 173.464 C 302.053 166.76 310.423 161.374 319.61 157.566 C 321.85 156.66 324.082 155.917 326.402 155.164 C 333.688 153.014 341.386 151.857 349.425 151.776 C 360.438 151.856 370.871 154.008 380.307 158.067 C 394.548 164.027 406.727 174.127 415.25 186.799 C 419.56 193.179 422.956 200.134 425.269 207.581 C 427.59 215.037 428.835 222.905 428.835 231.186 C 428.835 242.2 426.595 252.632 422.625 262.069 C 416.576 276.309 406.476 288.488 393.804 297.011 C 387.432 301.321 380.478 304.718 373.022 306.95 C 365.655 309.271 357.706 310.598 349.425 310.598 C 338.823 310.598 328.803 308.528 319.609 304.8 C 310.422 301.072 302.052 295.605 294.936 288.901 C 293.278 287.324 290.957 284.842 288.394 281.947 C 283.922 276.812 278.618 270.019 273.32 262.984 C 271.17 260.169 269.099 257.266 267.029 254.371 C 266.366 255.365 265.703 256.361 264.959 257.436 C 251.293 277.475 242.68 290.146 237.965 297.012 C 239.202 298.67 240.448 300.247 241.685 301.905 C 245.001 306.126 248.316 310.186 251.623 313.905 C 254.857 317.713 258.085 321.199 261.481 324.345 C 272.907 335.108 286.404 343.883 301.227 349.932 C 316.131 355.972 332.442 359.288 349.424 359.288 C 367.06 359.288 383.954 355.73 399.27 349.269 C 422.373 339.5 441.83 323.27 455.666 302.811 C 462.532 292.63 468.087 281.365 471.807 269.275 C 475.537 257.266 477.527 244.433 477.527 231.187 C 477.527 213.55 473.969 196.657 467.507 181.333 Z"/></g></g></g><text style="font-family: Arial, sans-serif; font-size: 135.9px; white-space: pre;" x="91.811" y="290.606">dx</text></g></svg>