<?xml version="1.0" encoding="utf-8"?>
<svg xmlns="http://www.w3.org/2000/svg" viewBox="0 0 500 500" xmlns:bx="https://boxy-svg.com" width="500px" height="500px"><defs><bx:export><bx:file format="svg" href="#object-1" path="Untitled 2.svg"/><bx:file format="svg" href="#object-2" path="Untitled 3.svg"/><bx:file format="svg" href="#object-3" path="Untitled 4.svg"/><bx:file format="svg" href="#object-4" path="Untitled 5.svg"/><bx:file format="svg" href="#object-5" path="Untitled 6.svg"/><bx:file format="svg" href="#object-6" path="Untitled 7.svg"/><bx:file format="svg" href="#object-7" path="Untitled 8.svg"/><bx:file format="svg" path="Untitled 9.svg"/></bx:export></defs><g transform="matrix(1.091965, 0, 0, 1.091965, -25.801542, -12.151593)" style=""><path fill="#FEED00" d="M 433.626 222.842 C 434.968 222.634 436.413 222.722 437.77 222.708 C 441.339 226.703 443.772 231.645 447.813 235.207 C 450.011 232.407 452.193 226.467 454.845 224.762 C 456.389 223.77 459.605 224.193 461.345 224.568 C 462.166 224.745 462.821 224.929 463.299 225.656 C 462.537 230.356 455.763 238.237 453.632 243.414 L 453.466 243.825 C 455.637 249.703 460.669 254.495 462.293 260.511 C 462.508 261.303 462.685 262.24 462.234 262.975 C 461.276 264.512 458.813 265.092 457.142 265.47 C 452.65 263.564 451.898 257.236 449.052 255.733 C 445.158 253.671 438.124 262.809 433.361 264.433 L 433.021 264.545 C 431.944 264.379 430.765 264.257 429.718 263.906 C 428.804 263.595 427.831 262.912 427.433 261.999 C 425.249 256.973 436.841 247.989 438.537 243.5 C 440.188 239.128 429.792 231.155 428.096 226.981 C 427.801 226.263 427.683 225.414 428.125 224.719 C 429.158 223.058 431.916 223.047 433.626 222.842 Z" style="stroke: rgb(0, 0, 0); stroke-width: 2px;" id="object-7"/><path fill="#FEED00" d="M 384.65 174.575 C 385.211 174.533 385.565 174.711 386.081 174.947 C 387.231 175.486 387.851 176.039 388.233 177.274 C 389.236 180.46 387.807 184.758 386.642 187.751 C 384.562 193.083 381.48 198.12 379.032 203.296 C 372.454 217.044 365.995 230.844 359.669 244.702 C 357.633 249.218 355.893 253.842 353.931 258.372 C 351.631 263.605 349.065 268.735 346.882 274.021 C 344.848 279.013 343.476 284.428 340.792 289.133 C 339.789 290.872 338.624 292.273 336.648 292.802 C 335.556 292.814 333.993 292.902 332.99 292.418 C 332.445 292.155 332.032 291.84 331.869 291.236 C 331.443 289.818 332.076 287.754 332.504 286.358 C 335.026 277.974 338.992 269.685 342.385 261.605 C 349.404 244.675 356.778 227.911 364.55 211.313 C 366.998 206.012 369.726 200.831 372.13 195.512 C 373.295 192.925 374.105 190.198 375.182 187.575 C 376.805 183.626 378.56 179.738 380.182 175.783 L 384.65 174.575 Z" style="stroke: rgb(0, 0, 0); stroke-width: 2px;" id="object-5"/><path fill="#FEED00" d="M 410.679 199.26 C 411.726 199.088 413.039 199.08 414.027 199.515 C 414.499 200.08 414.528 200.798 414.588 201.509 C 415.324 208.366 414.986 215.556 415.074 222.462 C 415.236 233.798 415.752 245.43 414.898 256.733 C 414.794 258.315 414.706 261.504 413.687 262.764 C 412.212 263.648 410.355 263.42 408.703 263.368 C 407.612 262.735 406.52 261.113 405.399 260.769 C 403.718 260.259 397.79 265.515 392.732 265.473 C 388.145 265.434 384.709 263.382 381.568 260.209 C 379.297 257.642 377.645 254.965 376.451 251.739 C 374.489 246.32 374.209 240.264 376.701 234.96 C 379.194 229.644 384.252 225.166 389.797 223.214 C 395.534 221.184 400.371 224.799 405.385 227.181 C 404.973 224.258 404.927 221.204 404.707 218.253 C 404.264 212.246 403.792 206.326 403.011 200.351 C 405.533 199.532 408.055 199.427 410.679 199.26 Z M 387.01 238.711 C 385.609 240.615 384.724 242.695 385.123 245.099 C 385.653 248.272 387.747 251.526 390.402 253.306 C 391.655 254.144 392.938 254.613 394.369 255.016 C 395.622 255.247 396.817 255.427 398.086 255.492 C 401.27 253.845 403.188 251.2 404.25 247.817 C 405.297 244.469 405.326 240.599 403.718 237.417 C 402.789 235.621 401.359 234.358 399.413 233.756 C 398.366 233.43 397.097 233.228 395.991 233.357 C 392.201 233.92 389.326 235.621 387.01 238.711 Z" style="stroke: rgb(0, 0, 0); stroke-width: 2px;" id="object-6"/><path fill="#FEED00" d="M 327.49 198.974 C 327.622 199.01 327.74 199.042 327.873 199.08 C 329.023 199.445 330.188 200.333 330.675 201.45 C 332.135 204.652 332.283 251.267 331.987 257.389 C 331.885 259.419 331.723 261.285 331.088 263.225 C 329.54 263.615 327.976 263.958 326.384 263.702 C 324.57 263.417 323.626 262.621 322.609 261.167 C 319.438 262.829 316.09 264.804 312.477 265.301 C 307.345 266.003 303.024 264.148 299.042 261.082 C 295.828 258.276 292.834 255.128 291.536 250.973 C 289.958 245.91 290.386 239.604 292.878 234.895 C 295.341 230.212 299.898 226.526 304.97 225.007 C 310.752 223.273 316.032 224.575 321.193 227.333 C 321.782 218.678 321.134 210.351 320.471 201.726 C 322.609 200.026 324.864 199.453 327.49 198.974 Z M 301.86 241.82 C 301.107 244.029 301.284 246.189 302.331 248.274 C 303.983 251.603 307.227 253.933 310.708 255.036 C 311.903 255.417 313.052 255.441 314.306 255.417 C 317.373 254.347 319.482 252.677 320.972 249.709 C 322.358 246.96 322.889 243.386 321.93 240.445 C 321.104 237.967 319.334 235.991 316.99 234.86 C 314.733 233.765 312.271 233.484 309.793 233.539 C 306.299 235.229 303.157 238.045 301.86 241.82 Z" style="stroke: rgb(0, 0, 0); stroke-width: 2px;" id="object-4"/><path fill="#FEED00" d="M 142.972 215.281 C 149.578 214.615 157.513 215.202 163.279 218.711 C 168.956 222.166 173.219 227.579 174.782 234.084 C 174.87 234.513 174.988 234.946 175.062 235.38 C 175.15 235.814 175.224 236.251 175.284 236.689 C 175.342 237.126 175.401 237.567 175.446 238.007 C 175.49 238.448 175.519 238.889 175.534 239.332 C 175.549 239.774 175.564 240.216 175.564 240.66 C 175.564 241.101 175.534 241.545 175.519 241.986 C 175.49 242.428 175.46 242.869 175.401 243.308 C 175.357 243.75 175.313 244.189 175.224 244.626 C 175.166 245.062 175.076 245.497 174.988 245.931 C 174.9 246.363 174.782 246.793 174.678 247.221 C 174.56 247.65 174.443 248.074 174.295 248.497 C 174.163 248.917 174.03 249.335 173.867 249.749 C 173.72 250.163 173.543 250.573 173.367 250.98 C 173.204 251.385 172.997 251.785 172.806 252.182 C 172.614 252.579 172.392 252.97 172.186 253.356 C 171.98 253.741 171.744 254.121 171.508 254.495 C 167.585 260.824 161.111 265.645 153.871 267.36 C 146.364 268.772 139.463 267.625 133.076 263.216 C 127.296 259.224 123.624 253.564 122.415 246.639 C 121.102 239.14 123.137 230.542 127.591 224.364 C 130.983 219.671 137.339 216.212 142.972 215.281 Z" style="stroke: rgb(0, 0, 0); stroke-width: 2px;" id="object-2"/><path fill="#FEED00" d="M 349.345 125.463 C 351.409 125.223 353.607 125.336 355.686 125.327 C 362.249 125.301 369.903 124.937 375.832 128.155 C 380.285 130.567 385.461 135.056 386.832 140.134 C 387.511 142.626 387.04 144.936 385.712 147.127 C 383.736 150.397 380.433 152.993 376.835 154.265 C 372.16 155.92 366.511 155.808 361.6 156.027 C 352.31 156.437 342.871 156.46 333.817 158.822 C 313.937 163.996 292.686 180.868 282.378 198.515 C 279.62 203.354 277.098 208.946 272.439 212.255 C 271.583 211.552 270.654 210.879 270.138 209.863 C 268.84 207.26 268.028 204.291 267.071 201.538 C 265.92 198.18 264.666 194.872 263.265 191.612 C 261.451 187.42 258.487 183.697 257.175 179.31 C 258.237 177.33 259.668 175.527 261.083 173.787 C 277.393 153.701 293.482 141.684 317.875 132.895 C 322.947 131.041 328.124 129.491 333.404 128.248 C 338.654 127.004 343.978 126.075 349.345 125.463 Z" style="stroke: rgb(0, 0, 0); stroke-width: 2px;" id="object-3"/><path d="M 140.421 128.47 C 145.037 127.918 150.375 128.257 155.006 128.606 C 169.68 129.713 181.315 132.257 194.263 139.465 C 203.288 144.49 212.137 150.571 219.481 157.895 C 223.61 162.024 227.119 166.828 230.527 171.559 C 234.612 177.238 238.623 183.082 242.118 189.159 C 247.221 198.055 251.424 207.609 255.553 216.994 C 259.476 225.834 263.295 234.728 266.967 243.681 C 274.739 262.514 281.331 279.024 296.078 293.745 C 310.074 307.738 325.44 317.744 345.098 321.475 C 348.299 322.078 351.513 322.547 354.757 322.879 C 361.91 323.586 371.275 323.14 377.188 327.752 C 380.418 330.282 382.291 334.192 382.719 338.238 C 383.146 342.31 381.686 347.412 379.061 350.57 C 376.643 353.452 372.424 354.039 368.915 354.416 C 350.216 356.432 327.268 351.142 310.604 342.551 C 299.942 337.061 290.592 330.278 281.758 322.194 C 273.706 314.827 266.112 306.612 260.05 297.509 C 253.636 287.856 249.064 276.894 244.566 266.254 C 240.452 256.6 236.499 246.888 232.679 237.117 C 222.828 211.995 215.957 194.873 194.41 177.456 C 186.24 170.838 175.77 163.748 165.373 161.582 C 160.786 160.628 155.891 160.544 151.215 160.488 C 147.072 160.439 142.913 160.376 138.813 160.828 C 120.173 162.874 103.037 173.841 91.445 188.263 C 89.72 190.42 88.112 192.65 86.593 194.952 C 75.297 212.316 73.07 224.466 73.66 244.922 C 73.837 251.356 74.102 257.772 75.459 264.086 C 79.677 283.759 94.541 302.17 111.221 312.993 C 123.461 320.929 133.106 323.689 147.735 323.687 C 152.498 323.687 157.203 323.522 161.893 322.495 C 162.557 322.344 163.25 322.183 163.913 322.014 C 164.577 321.846 165.255 321.667 165.919 321.483 C 166.598 321.296 167.246 321.102 167.925 320.898 C 168.588 320.696 169.252 320.487 169.915 320.267 C 170.579 320.049 171.228 319.822 171.876 319.586 C 172.526 319.35 173.189 319.107 173.838 318.856 C 174.472 318.604 175.121 318.344 175.77 318.077 C 176.405 317.807 177.038 317.533 177.672 317.251 C 178.306 316.966 178.926 316.675 179.575 316.375 C 180.194 316.077 180.828 315.77 181.433 315.455 C 182.067 315.141 182.672 314.819 183.276 314.488 C 183.896 314.158 184.501 313.821 185.105 313.475 C 185.71 313.13 186.3 312.777 186.904 312.417 C 187.495 312.057 188.084 311.69 188.674 311.316 C 189.249 310.94 189.839 310.559 190.415 310.169 C 190.989 309.781 191.55 309.383 192.124 308.98 C 192.67 308.577 193.245 308.167 193.806 307.749 C 194.352 307.333 194.912 306.908 195.458 306.477 C 195.989 306.045 196.534 305.607 197.065 305.162 C 197.596 304.718 198.127 304.267 198.657 303.809 C 199.173 303.353 199.69 302.888 200.192 302.417 C 200.708 301.947 201.224 301.471 201.725 300.986 C 202.212 300.503 202.713 300.013 203.2 299.518 C 203.686 299.023 204.159 298.523 204.645 298.016 C 205.117 297.508 205.574 296.993 206.046 296.474 C 206.503 295.955 206.961 295.431 207.403 294.9 C 207.845 294.37 208.302 293.835 208.73 293.293 C 209.172 292.751 209.585 292.204 210.013 291.652 C 210.426 291.1 210.854 290.543 211.252 289.981 C 211.664 289.419 212.078 288.852 212.461 288.277 C 212.859 287.706 213.228 287.129 213.611 286.546 C 213.995 285.964 214.364 285.378 214.732 284.787 C 218.449 278.835 220.955 272.296 224.745 266.399 C 228.167 272.292 230.261 278.826 232.975 285.053 C 234.464 288.445 236.47 291.646 237.782 295.092 C 238.327 296.497 238.726 297.943 238.918 299.439 C 239.464 303.931 233.874 310.966 231.205 314.469 C 215.514 335.026 190.605 349.178 165.019 352.546 C 133.195 356.736 109.938 350.348 84.646 330.821 C 66.359 316.703 54.681 300.279 47.866 278.226 C 45.699 271.443 44.151 264.529 43.192 257.476 C 42.13 249.094 41.526 240.107 42.027 231.67 C 42.1 230.292 42.218 228.918 42.352 227.547 C 42.484 226.173 42.646 224.803 42.838 223.436 C 43.015 222.071 43.221 220.708 43.473 219.35 C 43.709 217.992 43.973 216.638 44.269 215.289 C 44.549 213.941 44.874 212.599 45.198 211.263 C 45.552 209.925 45.905 208.595 46.303 207.273 C 46.701 205.951 47.115 204.636 47.542 203.328 C 47.984 202.021 48.442 200.723 48.943 199.434 C 49.43 198.145 49.946 196.865 50.478 195.594 C 51.022 194.325 51.583 193.065 52.173 191.817 C 52.763 190.566 53.352 189.329 54.002 188.104 C 54.621 186.878 55.285 185.665 55.948 184.465 C 56.626 183.262 57.335 182.075 58.057 180.899 C 58.78 179.726 59.532 178.565 60.299 177.418 C 61.051 176.272 61.848 175.141 62.658 174.021 C 63.455 172.907 64.296 171.806 65.136 170.719 C 83.791 146.819 110.454 132.152 140.421 128.47 Z" style="paint-order: fill; stroke: rgb(0, 0, 0); stroke-width: 2px;" id="object-1" fill="#FEED00"/></g></svg>