<?xml version="1.0" encoding="utf-8" ?>
<svg xmlns="http://www.w3.org/2000/svg" xmlns:xlink="http://www.w3.org/1999/xlink" width="1116" height="1116">
	<path transform="matrix(2.232 0 0 2.232 -6.10352e-05 -1.52588e-05)" d="M0 0L500 0L500 500L0 500L0 0Z"/>
	<path fill="#FEED00" transform="matrix(2.232 0 0 2.232 -6.10352e-05 -1.52588e-05)" d="M439.91 244.847C441.247 244.64 442.689 244.727 444.043 244.713C447.602 248.694 450.016 253.615 454.04 257.162C456.226 254.375 458.401 248.458 461.045 246.76C462.588 245.77 465.788 246.192 467.522 246.566C468.341 246.742 468.994 246.925 469.475 247.651C468.713 252.332 461.96 260.182 459.84 265.339L459.674 265.747C461.84 271.601 466.855 276.375 468.471 282.367C468.684 283.155 468.857 284.088 468.405 284.821C467.459 286.352 464.999 286.93 463.337 287.306C458.858 285.408 458.105 279.105 455.28 277.608C451.405 275.554 444.39 284.656 439.65 286.273L439.311 286.385C438.234 286.219 437.061 286.098 436.028 285.749C435.114 285.439 434.145 284.759 433.749 283.85C431.57 278.844 443.122 269.895 444.805 265.424C446.445 261.068 436.098 253.127 434.409 248.969C434.119 248.255 434.002 247.409 434.432 246.718C435.461 245.062 438.206 245.052 439.91 244.847Z"/>
	<path fill="#FEED00" transform="matrix(2.232 0 0 2.232 -6.10352e-05 -1.52588e-05)" d="M391.127 196.77C391.69 196.73 392.052 196.906 392.554 197.141C393.702 197.679 394.323 198.229 394.707 199.461C395.697 202.633 394.278 206.914 393.114 209.895C391.041 215.206 387.981 220.222 385.537 225.379Q375.713 245.917 366.243 266.62C364.22 271.118 362.5 275.725 360.526 280.235C358.245 285.449 355.679 290.558 353.524 295.824C351.489 300.797 350.123 306.19 347.444 310.876C346.454 312.608 345.288 314.002 343.312 314.53C342.227 314.543 340.666 314.63 339.677 314.148C339.136 313.885 338.727 313.573 338.552 312.971C338.14 311.558 338.77 309.502 339.19 308.112C341.712 299.761 345.656 291.505 349.033 283.457Q359.504 258.162 371.104 233.364C373.547 228.085 376.272 222.923 378.662 217.625C379.824 215.049 380.63 212.332 381.701 209.72C383.313 205.787 385.071 201.913 386.679 197.974L391.127 196.77Z"/>
	<path fill="#FEED00" transform="matrix(2.232 0 0 2.232 -6.10352e-05 -1.52588e-05)" d="M417.058 221.358C418.099 221.187 419.413 221.179 420.386 221.612C420.864 222.175 420.882 222.89 420.957 223.599C421.681 230.429 421.346 237.59 421.441 244.468C421.598 255.76 422.115 267.344 421.27 278.604C421.152 280.179 421.058 283.356 420.048 284.611C418.575 285.492 416.741 285.264 415.088 285.213C414.003 284.582 412.918 282.966 411.797 282.624C410.128 282.116 404.216 287.352 399.18 287.309C394.608 287.27 391.195 285.227 388.052 282.067C385.8 279.51 384.145 276.843 382.975 273.629C381.009 268.231 380.738 262.2 383.213 256.918C385.696 251.621 390.738 247.163 396.248 245.218C401.976 243.195 406.8 246.796 411.779 249.169C411.379 246.257 411.328 243.215 411.114 240.277C410.677 234.294 410.208 228.395 409.415 222.445C411.933 221.629 414.443 221.524 417.058 221.358Z"/>
	<path transform="matrix(2.232 0 0 2.232 -6.10352e-05 -1.52588e-05)" d="M402.433 255.321C403.539 255.19 404.789 255.393 405.846 255.72C407.769 256.316 409.205 257.575 410.114 259.364C411.725 262.535 411.703 266.389 410.655 269.723C409.596 273.093 407.685 275.727 404.515 277.367C403.248 277.303 402.057 277.123 400.812 276.894C399.389 276.493 398.101 276.024 396.858 275.19C394.213 273.417 392.134 270.175 391.605 267.015C391.204 264.621 392.083 262.549 393.495 260.653C395.787 257.575 398.643 255.88 402.433 255.321Z"/>
	<path fill="#FEED00" transform="matrix(2.232 0 0 2.232 -6.10352e-05 -1.52588e-05)" d="M334.201 221.073C334.325 221.109 334.449 221.142 334.572 221.18C335.726 221.544 336.873 222.428 337.378 223.54C338.827 226.73 338.976 273.158 338.673 279.257C338.572 281.278 338.411 283.138 337.783 285.07C336.25 285.46 334.68 285.801 333.091 285.547C331.296 285.261 330.351 284.469 329.333 283.021C326.165 284.675 322.839 286.644 319.243 287.137C314.13 287.838 309.833 285.99 305.853 282.936C302.664 280.14 299.676 277.005 298.388 272.867C296.818 267.824 297.243 261.543 299.715 256.852C302.172 252.188 306.714 248.517 311.76 247.004C317.524 245.277 322.779 246.573 327.936 249.319C328.507 240.699 327.859 232.405 327.207 223.814C329.334 222.121 331.59 221.55 334.201 221.073Z"/>
	<path transform="matrix(2.232 0 0 2.232 -6.10352e-05 -1.52588e-05)" d="M316.575 255.501C319.045 255.448 321.489 255.728 323.741 256.817C326.072 257.944 327.845 259.912 328.652 262.38C329.61 265.309 329.092 268.87 327.71 271.607C326.216 274.565 324.131 276.227 321.063 277.292C319.821 277.317 318.672 277.292 317.477 276.913C314.008 275.814 310.773 273.493 309.132 270.179C308.103 268.101 307.925 265.95 308.675 263.75C309.956 259.991 313.085 257.184 316.575 255.501Z"/>
	<path fill="#FEED00" transform="matrix(2.232 0 0 2.232 -6.10352e-05 -1.52588e-05)" d="M150.415 237.317C156.985 236.652 164.891 237.238 170.641 240.731C176.307 244.174 180.529 249.565 182.089 256.045Q182.25 256.687 182.378 257.336Q182.506 257.984 182.601 258.639Q182.696 259.294 182.758 259.952Q182.82 260.611 182.848 261.271Q182.877 261.932 182.872 262.594Q182.867 263.255 182.829 263.915Q182.791 264.576 182.72 265.233Q182.648 265.891 182.544 266.544Q182.439 267.197 182.302 267.844Q182.164 268.491 181.994 269.13Q181.824 269.77 181.622 270.399Q181.42 271.029 181.187 271.648Q180.953 272.267 180.689 272.873Q180.424 273.479 180.129 274.072Q179.835 274.664 179.51 275.24Q179.186 275.817 178.833 276.376C174.933 282.678 168.482 287.481 161.265 289.189C153.788 290.596 146.914 289.453 140.555 285.062C134.795 281.085 131.14 275.447 129.937 268.549C128.634 261.08 130.663 252.517 135.096 246.363C138.463 241.689 144.792 238.243 150.415 237.317Z"/>
	<path fill="#FEED00" transform="matrix(2.232 0 0 2.232 -6.10352e-05 -1.52588e-05)" d="M355.973 147.853C358.023 147.614 360.219 147.727 362.284 147.718C368.831 147.691 376.436 147.329 382.355 150.535C386.79 152.937 391.944 157.408 393.304 162.465C393.971 164.949 393.512 167.249 392.195 169.432C390.23 172.69 386.925 175.275 383.354 176.54C378.702 178.189 373.07 178.079 368.176 178.296C358.915 178.705 349.523 178.728 340.495 181.079C320.697 186.234 299.53 203.04 289.267 220.617C286.522 225.436 283.999 231.006 279.373 234.302C278.51 233.602 277.592 232.932 277.082 231.92C275.774 229.327 274.962 226.37 274.017 223.627Q272.309 218.611 270.221 213.74C268.426 209.564 265.477 205.856 264.158 201.488C265.22 199.514 266.648 197.72 268.056 195.986C284.295 175.98 300.334 164.01 324.621 155.256Q332.212 152.484 340.078 150.627Q347.943 148.769 355.973 147.853Z"/>
	<path fill="#FEED00" transform="matrix(2.232 0 0 2.232 -6.10352e-05 -1.52588e-05)" d="M147.876 150.849C152.468 150.298 157.793 150.636 162.404 150.984C177.015 152.086 188.592 154.621 201.493 161.8C210.488 166.806 219.311 172.861 226.618 180.157C230.738 184.27 234.221 189.054 237.615 193.767C241.688 199.423 245.696 205.244 249.162 211.296C254.238 220.158 258.441 229.674 262.542 239.021Q268.426 252.229 273.922 265.603C281.651 284.363 288.232 300.806 302.904 315.471C316.847 329.407 332.151 339.373 351.737 343.089Q356.517 343.992 361.356 344.489C368.483 345.192 377.808 344.748 383.689 349.342C386.916 351.862 388.79 355.755 389.215 359.787C389.643 363.843 388.177 368.925 385.556 372.07C383.163 374.941 378.963 375.524 375.467 375.901C356.829 377.909 333.978 372.64 317.371 364.082C306.761 358.614 297.434 351.857 288.646 343.806C280.636 336.468 273.067 328.286 267.038 319.219C260.645 309.603 256.088 298.685 251.611 288.087Q245.472 273.663 239.761 259.065C229.952 234.042 223.097 216.988 201.652 199.641C193.504 193.049 183.077 185.986 172.715 183.83C168.153 182.88 163.273 182.796 158.622 182.74C154.504 182.691 150.362 182.627 146.263 183.078C127.706 185.117 110.624 196.041 99.0875 210.404Q96.5262 213.628 94.2624 217.068C82.9927 234.363 80.7842 246.464 81.3682 266.84C81.5519 273.248 81.815 279.637 83.166 285.928C87.374 305.523 102.171 323.861 118.79 334.64C130.98 342.546 140.579 345.295 155.152 345.294C159.898 345.293 164.591 345.129 169.25 344.107Q170.262 343.88 171.269 343.627Q172.276 343.374 173.275 343.097Q174.275 342.819 175.268 342.516Q176.261 342.214 177.245 341.887Q178.23 341.56 179.207 341.208Q180.183 340.857 181.15 340.481Q182.118 340.105 183.075 339.705Q184.033 339.305 184.98 338.882Q185.928 338.458 186.864 338.011Q187.801 337.564 188.726 337.094Q189.651 336.624 190.564 336.131Q191.477 335.638 192.378 335.122Q193.278 334.606 194.165 334.068Q195.053 333.53 195.927 332.97Q196.8 332.411 197.66 331.829Q198.519 331.247 199.364 330.645Q200.209 330.042 201.038 329.418Q201.868 328.795 202.681 328.151Q203.495 327.506 204.292 326.842Q205.089 326.178 205.87 325.494Q206.651 324.81 207.414 324.107Q208.177 323.404 208.923 322.682Q209.668 321.96 210.395 321.22Q211.123 320.48 211.831 319.722Q212.54 318.964 213.229 318.188Q213.919 317.413 214.589 316.62Q215.259 315.828 215.909 315.019Q216.559 314.21 217.188 313.385Q217.818 312.56 218.427 311.72Q219.036 310.879 219.623 310.024Q220.211 309.169 220.777 308.299Q221.344 307.429 221.888 306.546C225.585 300.619 228.094 294.106 231.863 288.233C235.277 294.103 237.357 300.61 240.067 306.812C241.543 310.19 243.537 313.378 244.853 316.811C245.389 318.21 245.794 319.651 245.974 321.14C246.515 325.615 240.961 332.623 238.299 336.112C222.671 356.588 197.853 370.683 172.374 374.038C140.673 378.212 117.511 371.848 92.3113 352.397C74.0951 338.337 62.4775 321.979 55.6784 300.011Q52.4466 289.881 51.0256 279.344C49.9711 270.996 49.3713 262.043 49.8613 253.64Q49.9855 251.583 50.1874 249.533Q50.3892 247.482 50.6684 245.44Q50.9476 243.399 51.3036 241.369Q51.6597 239.34 52.0922 237.325Q52.5247 235.31 53.033 233.313Q53.5413 231.316 54.1247 229.34Q54.7081 227.364 55.3657 225.411Q56.0233 223.458 56.7542 221.532Q57.4851 219.605 58.2883 217.707Q59.0914 215.81 59.9657 213.944Q60.84 212.078 61.7841 210.247Q62.7282 208.415 63.7409 206.62Q64.7535 204.826 65.8332 203.071Q66.9129 201.316 68.0582 199.603Q69.2034 197.89 70.4126 196.221Q71.6217 194.553 72.893 192.931C91.4609 169.125 118.018 154.517 147.876 150.849Z"/>
</svg>
