<?xml version="1.0" encoding="utf-8"?>
<svg xmlns="http://www.w3.org/2000/svg" viewBox="0 0 500 500" xmlns:bx="https://boxy-svg.com" height="500px" width="500px"><ellipse style="stroke: rgb(0, 0, 0); paint-order: fill; stroke-width: 0px;" cx="169.048" cy="249.403" rx="104.011" ry="104.011"/><rect x="362.805" y="260.428" width="35.508" height="67.173" style="filter: none; stroke-width: 3px; stroke: rgb(255, 216, 0);"/><rect x="469.549" y="163.77" width="35.508" height="186.151" style="filter: none; stroke-width: 3px; stroke: rgb(255, 216, 0);"/><rect x="398.403" y="213.137" width="35.508" height="121.092" style="filter: none; stroke-width: 3px; stroke: rgb(255, 216, 0);"/><rect x="433.888" y="176.445" width="35.508" height="166.193" style="filter: none; stroke-width: 3px; stroke: rgb(255, 216, 0);"/><path class="st0" d="M 623.746 189.294 C 611.849 161.256 592.085 137.462 567.168 120.622 C 554.769 112.251 541.05 105.593 526.328 101.053 C 511.702 96.414 496.074 93.992 479.942 93.992 C 459.26 93.992 439.396 98.03 421.246 105.398 C 419.729 105.996 418.321 106.598 416.913 107.306 C 400.575 114.466 385.645 124.551 372.842 136.555 C 368.707 140.486 364.776 144.621 360.837 149.259 C 353.884 157.226 346.725 166.406 339.762 175.681 C 338.353 177.592 336.837 179.611 335.429 181.533 C 331.598 186.771 294.982 240.425 288.531 250.007 C 285.301 254.841 281.47 260.287 277.334 266.237 C 276.427 267.547 275.424 268.964 274.419 270.372 C 267.556 280.153 259.893 290.443 252.831 299.523 C 249.305 304.054 245.771 308.288 242.746 311.824 C 239.625 315.448 236.799 318.373 234.78 320.292 C 226.113 328.457 215.921 335.115 204.733 339.655 C 193.537 344.195 181.334 346.716 168.422 346.716 C 159.549 346.716 150.981 345.503 142.916 343.288 C 138.78 342.175 134.743 340.766 130.812 339.053 C 113.46 331.785 98.638 319.485 88.248 304.053 C 83.01 296.293 78.872 287.822 76.048 278.743 C 73.327 269.662 71.715 260.091 71.715 250.005 C 71.715 236.592 74.443 223.986 79.277 212.384 C 86.643 195.041 98.943 180.32 114.376 169.831 C 122.136 164.582 130.605 160.552 139.685 157.727 C 148.755 154.899 158.337 153.296 168.422 153.296 C 181.334 153.393 193.537 155.816 204.733 160.347 C 215.922 164.984 226.113 171.543 234.78 179.709 C 236.799 181.629 244.511 189.553 247.633 193.088 C 253.079 199.441 254.366 200.575 260.826 209.154 C 263.348 212.58 266.655 217.736 269.177 221.261 C 278.857 207.15 295.287 182.741 304.16 169.928 C 302.653 167.909 301.137 165.9 299.629 163.881 C 295.592 158.73 291.554 153.796 287.527 149.256 C 283.488 144.618 279.656 140.482 275.521 136.552 C 261.606 123.433 245.17 112.749 227.117 105.393 C 208.966 98.025 189.094 93.987 168.422 93.987 C 146.943 93.987 126.37 98.329 107.619 106.297 C 79.582 118.095 55.877 137.86 39.036 162.767 C 30.665 175.177 24.017 188.983 19.38 203.608 C 14.84 218.335 12.418 233.867 12.418 250.008 C 12.418 271.486 16.75 292.059 24.621 310.711 C 36.516 338.849 56.281 362.554 81.09 379.394 C 93.597 387.765 107.317 394.413 122.038 399.051 C 136.662 403.592 152.292 406.013 168.424 406.013 C 189.096 406.013 208.969 401.975 227.119 394.619 C 245.171 387.253 261.508 376.566 275.425 363.557 L 275.522 363.458 C 279.659 359.628 283.49 355.383 287.528 350.745 C 294.48 342.777 301.64 333.608 308.603 324.331 C 310.012 322.41 311.528 320.489 312.935 318.579 C 316.766 313.232 366.894 239.714 371.022 233.767 C 371.937 232.456 372.943 231.048 373.945 229.631 C 380.81 219.949 388.471 209.56 395.533 200.49 C 399.059 195.951 402.594 191.714 405.618 188.189 C 408.74 184.556 411.567 181.63 413.585 179.711 C 422.251 171.546 432.445 164.987 443.633 160.349 C 446.36 159.246 449.079 158.341 451.904 157.424 C 460.777 154.806 470.152 153.397 479.942 153.299 C 493.355 153.396 506.06 156.017 517.551 160.96 C 534.895 168.217 549.726 180.518 560.106 195.951 C 565.356 203.72 569.491 212.19 572.308 221.259 C 575.135 230.34 576.65 239.921 576.65 250.007 C 576.65 263.419 573.923 276.125 569.087 287.617 C 561.721 304.959 549.42 319.791 533.989 330.17 C 526.229 335.419 517.759 339.556 508.679 342.274 C 499.707 345.101 490.027 346.717 479.942 346.717 C 467.03 346.717 454.827 344.196 443.632 339.656 C 432.443 335.116 422.25 328.459 413.583 320.293 C 411.565 318.373 408.738 315.351 405.617 311.825 C 400.171 305.572 393.712 297.298 387.259 288.731 C 384.64 285.303 382.118 281.768 379.598 278.243 C 378.79 279.452 377.983 280.665 377.077 281.974 C 360.434 306.379 349.945 321.81 344.202 330.172 C 345.709 332.19 347.226 334.111 348.733 336.131 C 352.77 341.271 356.808 346.215 360.835 350.745 C 364.774 355.382 368.706 359.628 372.841 363.458 C 386.756 376.566 403.193 387.253 421.245 394.619 C 439.396 401.975 459.259 406.013 479.941 406.013 C 501.42 406.013 521.993 401.681 540.646 393.813 C 568.781 381.915 592.476 362.149 609.326 337.234 C 617.688 324.835 624.453 311.117 628.982 296.392 C 633.525 281.768 635.949 266.139 635.949 250.008 C 635.949 228.528 631.617 207.955 623.746 189.294 Z" style="filter: none; stroke: rgb(0, 0, 0); paint-order: stroke; stroke-width: 18px; fill: rgb(255, 216, 0);"/><text style="fill: rgb(255, 216, 0); font-family: Arial, sans-serif; font-size: 135.3px; white-space: pre;" x="95.956" y="290.433">dx</text></svg>