<?xml version="1.0" standalone="no"?>
<!DOCTYPE svg PUBLIC "-//W3C//DTD SVG 20010904//EN"
 "http://www.w3.org/TR/2001/REC-SVG-20010904/DTD/svg10.dtd">
<svg version="1.0" xmlns="http://www.w3.org/2000/svg"
 width="500.000000pt" height="500.000000pt" viewBox="0 0 500.000000 500.000000"
 preserveAspectRatio="xMidYMid meet">
<metadata>
Created by potrace 1.15, written by Peter Selinger 2001-2017
</metadata>
<g transform="translate(0.000000,500.000000) scale(0.100000,-0.100000)"
fill="#000000" stroke="none">
<path d="M0 2500 l0 -2500 2500 0 2500 0 0 2500 0 2500 -2500 0 -2500 0 0
-2500z m3806 991 c79 -40 129 -111 117 -162 -3 -13 -17 -37 -32 -52 -49 -54
-72 -60 -266 -67 -195 -8 -247 -20 -388 -90 -125 -61 -281 -205 -343 -315
-105 -185 -110 -186 -159 -35 -15 47 -43 110 -61 141 -19 31 -34 62 -34 69 0
18 123 162 193 226 153 139 356 239 587 288 112 23 126 25 241 21 83 -3 116
-8 145 -24z m-2015 -26 c154 -31 348 -142 475 -269 66 -67 187 -238 247 -351
48 -90 168 -357 222 -495 112 -284 177 -392 314 -523 184 -175 349 -248 604
-267 131 -9 167 -23 204 -80 40 -58 28 -155 -24 -202 -27 -25 -121 -35 -240
-26 -273 20 -522 135 -728 335 -169 164 -238 268 -340 513 -15 36 -33 79 -40
95 -24 55 -94 229 -129 321 -96 254 -204 397 -403 535 -42 28 -108 66 -147 82
-63 27 -85 31 -193 35 -157 6 -235 -8 -348 -63 -162 -78 -275 -192 -365 -370
-62 -123 -75 -186 -75 -375 1 -181 18 -261 87 -393 64 -124 207 -265 340 -339
98 -54 173 -72 298 -72 98 0 128 4 205 28 246 77 411 223 522 463 18 40 38 73
42 73 5 0 26 -44 46 -97 21 -54 50 -122 66 -150 43 -79 39 -105 -29 -199 -195
-266 -494 -414 -836 -414 -219 0 -363 43 -542 163 -278 185 -413 381 -485 702
-25 113 -35 317 -20 405 36 214 76 324 166 458 187 281 466 457 785 496 58 7
251 -4 321 -19z m2134 -448 c25 -19 14 -81 -29 -166 -19 -36 -52 -104 -74
-151 -22 -47 -62 -132 -90 -190 -59 -124 -122 -265 -122 -273 0 -3 -19 -45
-41 -93 -23 -49 -49 -111 -59 -138 -45 -128 -61 -149 -107 -144 -24 3 -28 7
-27 33 1 17 29 95 64 175 34 80 77 182 95 227 18 46 42 100 53 120 11 21 30
63 42 93 22 54 131 288 150 322 6 10 10 22 10 28 0 6 14 40 30 75 17 35 30 69
30 74 0 5 10 12 23 14 12 2 25 5 28 6 3 0 13 -5 24 -12z m-569 -241 c18 -14
19 -31 22 -314 3 -293 3 -301 -17 -311 -21 -12 -71 1 -71 18 0 5 -19 -1 -42
-14 -78 -45 -159 -26 -231 54 -40 44 -52 87 -45 162 9 92 97 169 193 168 28 0
61 -6 75 -14 14 -8 27 -14 30 -15 8 0 5 193 -3 221 -10 33 4 45 64 58 3 0 14
-5 25 -13z m838 -1 c3 -8 6 -146 7 -305 1 -215 -2 -295 -11 -305 -16 -19 -54
-19 -70 0 -17 20 -23 19 -66 -10 -92 -62 -208 2 -244 136 -24 90 7 176 84 228
63 44 101 47 160 16 l49 -26 -7 103 c-3 57 -9 117 -12 135 -6 29 -4 32 22 35
74 8 82 8 88 -7z m-2499 -172 c90 -47 138 -126 138 -229 -1 -163 -164 -299
-318 -264 -177 39 -259 209 -185 377 28 63 54 90 115 120 43 21 61 24 130 20
55 -2 92 -10 120 -24z m2779 -114 c21 -33 43 -58 50 -56 6 2 22 27 36 55 24
51 26 52 68 52 28 0 45 -5 48 -15 3 -8 -17 -46 -45 -88 -28 -40 -51 -82 -51
-92 0 -11 18 -45 40 -76 22 -32 43 -71 46 -88 6 -27 3 -32 -22 -41 -37 -14
-48 -9 -75 41 -39 69 -49 70 -115 11 -58 -52 -70 -57 -111 -46 -44 12 -22 74
55 156 53 57 52 61 -27 152 -63 70 -63 89 -1 96 25 3 50 4 55 2 6 -2 27 -30
49 -63z"/>
<path d="M3150 2443 c-28 -11 -59 -46 -70 -79 -9 -26 -8 -39 5 -64 19 -37 69
-70 106 -70 80 0 126 132 65 188 -22 21 -81 35 -106 25z"/>
<path d="M3974 2440 c-29 -11 -74 -67 -74 -91 0 -11 9 -37 20 -59 21 -40 67
-65 112 -58 35 5 68 63 68 120 0 79 -55 117 -126 88z"/>
</g>
</svg>
