<?xml version="1.0" encoding="utf-8"?>
<svg xmlns="http://www.w3.org/2000/svg" viewBox="0 0 500 500" xmlns:bx="https://boxy-svg.com" width="500px" height="500px"><defs><bx:export><bx:file format="svg" path="Untitled 9.svg"/></bx:export></defs><ellipse style="stroke: rgb(0, 0, 0); paint-order: fill; stroke-width: 0px;" cx="149.319" cy="250.902" rx="65.482" ry="65.482"/><rect x="348.421" y="249.986" width="50.591" height="71.114" style="stroke: rgb(0, 0, 0); stroke-width: 0px; fill: rgb(0, 137, 255);"/><ellipse style="stroke: rgb(0, 0, 0); paint-order: fill; stroke-width: 0px; fill: rgb(255, 244, 0);" cx="155.184" cy="245.21" rx="34.638" ry="34.638"/><rect x="410.133" y="218.967" width="50.591" height="121.754" style="stroke: rgb(0, 0, 0); stroke-width: 0px; fill: rgb(0, 137, 255);"/><rect x="471.799" y="187.943" width="50.591" height="152.749" style="stroke: rgb(0, 0, 0); stroke-width: 0px; fill: rgb(0, 137, 255);"/><g transform="matrix(1.648246, 0, 0, 1.648246, -109.344109, -171.952606)" style=""><g><path d="M433.11,223.51c-6.359-14.999-16.927-27.712-30.24-36.717c-6.657-4.502-14.011-8.076-21.864-10.524 c-7.852-2.448-16.206-3.765-24.812-3.764c-12.362-0.011-24.036,2.613-34.69,6.984c-9.338,3.823-17.934,8.94-25.971,14.798 c-14.059,10.268-26.501,22.793-38.382,35.605c-0.386,0.417-0.764,0.837-1.149,1.256c-0.083-0.091-0.166-0.183-0.249-0.274 c-6.661-7.219-13.506-14.351-20.697-21.066c-10.79-10.06-22.363-19.233-35.455-26.079c-6.542-3.416-13.469-6.23-20.791-8.185 c-7.318-1.956-15.027-3.04-23.007-3.038c-11.476-0.002-22.496,2.343-32.491,6.581c-14.999,6.359-27.712,16.927-36.717,30.24 c-4.502,6.657-8.076,14.011-10.524,21.864c-2.448,7.852-3.765,16.206-3.764,24.812c-0.002,11.476,2.343,22.496,6.581,32.491 c6.359,14.997,16.928,27.71,30.24,36.715c6.657,4.502,14.011,8.076,21.864,10.524c7.852,2.448,16.206,3.765,24.812,3.764 c12.362,0.01,24.036-2.613,34.69-6.984c9.338-3.823,17.934-8.94,25.971-14.798c14.059-10.268,26.501-22.793,38.382-35.605 c0.386-0.417,0.764-0.837,1.149-1.255c0.083,0.091,0.166,0.183,0.249,0.274c6.661,7.219,13.506,14.351,20.697,21.066 c10.79,10.06,22.363,19.233,35.455,26.079c6.542,3.414,13.469,6.23,20.791,8.185c7.318,1.956,15.027,3.04,23.007,3.038 c11.476,0.002,22.496-2.344,32.491-6.581c14.999-6.359,27.712-16.927,36.717-30.24c4.502-6.657,8.076-14.011,10.524-21.864 c2.448-7.852,3.765-16.206,3.764-24.811C439.693,244.525,437.348,233.505,433.11,223.51z M231.208,258.483 c-6.355,6.889-12.655,13.433-18.941,19.299c-9.426,8.813-18.817,16.044-28.117,20.884c-4.654,2.428-9.28,4.277-13.954,5.525 c-4.678,1.247-9.406,1.905-14.391,1.907c-6.941-0.002-13.479-1.403-19.462-3.934c-8.968-3.795-16.665-10.183-22.079-18.195 c-2.708-4.005-4.845-8.406-6.306-13.094c-1.461-4.69-2.251-9.666-2.251-14.873c0.002-6.941,1.403-13.479,3.934-19.461 c3.795-8.967,10.183-16.665,18.196-22.079c4.004-2.708,8.406-4.845,13.096-6.306c4.69-1.461,9.666-2.251,14.873-2.251 c7.708,0.01,14.84,1.562,22.044,4.497c6.287,2.569,12.592,6.242,18.941,10.873c11.116,8.086,22.275,19.114,33.553,31.311 c1.039,1.122,2.085,2.278,3.127,3.418C232.718,256.826,231.961,257.668,231.208,258.483z M402.36,275.464 c-3.795,8.968-10.183,16.665-18.196,22.079c-4.004,2.708-8.406,4.845-13.096,6.306c-4.69,1.461-9.666,2.251-14.873,2.251 c-7.708-0.01-14.84-1.562-22.044-4.497c-6.287-2.569-12.592-6.242-18.941-10.873c-11.116-8.086-22.275-19.114-33.553-31.311 c-1.039-1.122-2.085-2.279-3.127-3.418c0.754-0.825,1.511-1.667,2.263-2.481c6.355-6.889,12.655-13.433,18.941-19.299 c9.426-8.813,18.817-16.044,28.117-20.884c4.654-2.428,9.28-4.277,13.954-5.525c4.678-1.247,9.406-1.905,14.391-1.907 c6.941,0.002,13.479,1.403,19.462,3.934c8.968,3.795,16.665,10.183,22.079,18.196c2.708,4.005,4.845,8.406,6.306,13.094 c1.461,4.69,2.251,9.666,2.251,14.873C406.293,262.942,404.892,269.48,402.36,275.464z" style=""/></g></g></svg>