<?xml version="1.0" encoding="utf-8"?>
<svg xmlns="http://www.w3.org/2000/svg" viewBox="0 0 500 350" xmlns:bx="https://boxy-svg.com" height="100%"><defs><filter id="drop-shadow-filter-0" bx:preset="drop-shadow 1 7 7 0 0.5 rgba(0,0,0,0.3)" color-interpolation-filters="sRGB" x="-50%" y="-50%" width="200%" height="200%"><feGaussianBlur in="SourceAlpha" stdDeviation="0"/><feOffset dx="7" dy="7"/><feComponentTransfer result="offsetblur"><feFuncA id="spread-ctrl" type="linear" slope="1"/></feComponentTransfer><feFlood flood-color="rgba(0,0,0,0.3)"/><feComposite in2="offsetblur" operator="in"/><feMerge><feMergeNode/><feMergeNode in="SourceGraphic"/></feMerge></filter></defs><ellipse style="stroke: rgb(0, 0, 0); paint-order: fill; stroke-width: 0px;" cx="169.048" cy="169.618" rx="104.011" ry="104.011"/><g style="filter: url(&quot;#drop-shadow-filter-0&quot;);"><rect x="401.901" y="131.238" width="46.624" height="140.486" style="stroke: rgb(0, 0, 0); filter: none; fill: rgb(0, 123, 255); stroke-width: 3px;"/><rect x="458.572" y="67.837" width="50.375" height="205.087" style="stroke: rgb(0, 0, 0); filter: none; fill: rgb(0, 123, 255); stroke-width: 3px;"/><rect x="344.202" y="168.763" width="47.636" height="81.625" style="stroke: rgb(0, 0, 0); filter: none; fill: rgb(0, 123, 255); stroke-width: 3px;"/><path class="st0" d="M 623.746 109.509 C 611.849 81.471 592.085 57.677 567.168 40.837 C 554.769 32.466 541.05 25.808 526.328 21.268 C 511.702 16.629 496.074 14.207 479.942 14.207 C 459.26 14.207 439.396 18.245 421.246 25.613 C 419.729 26.211 418.321 26.813 416.913 27.521 C 400.575 34.681 385.645 44.766 372.842 56.77 C 368.707 60.701 364.776 64.836 360.837 69.474 C 353.884 77.441 346.725 86.621 339.762 95.896 C 338.353 97.807 336.837 99.826 335.429 101.748 C 331.598 106.986 294.982 160.64 288.531 170.222 C 285.301 175.056 281.47 180.502 277.334 186.452 C 276.427 187.762 275.424 189.179 274.419 190.587 C 267.556 200.368 259.893 210.658 252.831 219.738 C 249.305 224.269 245.771 228.503 242.746 232.039 C 239.625 235.663 236.799 238.588 234.78 240.507 C 226.113 248.672 215.921 255.33 204.733 259.87 C 193.537 264.41 181.334 266.931 168.422 266.931 C 159.549 266.931 150.981 265.718 142.916 263.503 C 138.78 262.39 134.743 260.981 130.812 259.268 C 113.46 252 98.638 239.7 88.248 224.268 C 83.01 216.508 78.872 208.037 76.048 198.958 C 73.327 189.877 71.715 180.306 71.715 170.22 C 71.715 156.807 74.443 144.201 79.277 132.599 C 86.643 115.256 98.943 100.535 114.376 90.046 C 122.136 84.797 130.605 80.767 139.685 77.942 C 148.755 75.114 158.337 73.511 168.422 73.511 C 181.334 73.608 193.537 76.031 204.733 80.562 C 215.922 85.199 226.113 91.758 234.78 99.924 C 236.799 101.844 244.511 109.768 247.633 113.303 C 253.079 119.656 254.366 120.79 260.826 129.369 C 263.348 132.795 266.655 137.951 269.177 141.476 C 278.857 127.365 295.287 102.956 304.16 90.143 C 302.653 88.124 301.137 86.115 299.629 84.096 C 295.592 78.945 291.554 74.011 287.527 69.471 C 283.488 64.833 279.656 60.697 275.521 56.767 C 261.606 43.648 245.17 32.964 227.117 25.608 C 208.966 18.24 189.094 14.202 168.422 14.202 C 146.943 14.202 126.37 18.544 107.619 26.512 C 79.582 38.31 55.877 58.075 39.036 82.982 C 30.665 95.392 24.017 109.198 19.38 123.823 C 14.84 138.55 12.418 154.082 12.418 170.223 C 12.418 191.701 16.75 212.274 24.621 230.926 C 36.516 259.064 56.281 282.769 81.09 299.609 C 93.597 307.98 107.317 314.628 122.038 319.266 C 136.662 323.807 152.292 326.228 168.424 326.228 C 189.096 326.228 208.969 322.19 227.119 314.834 C 245.171 307.468 261.508 296.781 275.425 283.772 L 275.522 283.673 C 279.659 279.843 283.49 275.598 287.528 270.96 C 294.48 262.992 301.64 253.823 308.603 244.546 C 310.012 242.625 311.528 240.704 312.935 238.794 C 316.766 233.447 366.894 159.929 371.022 153.982 C 371.937 152.671 372.943 151.263 373.945 149.846 C 380.81 140.164 388.471 129.775 395.533 120.705 C 399.059 116.166 402.594 111.929 405.618 108.404 C 408.74 104.771 411.567 101.845 413.585 99.926 C 422.251 91.761 432.445 85.202 443.633 80.564 C 446.36 79.461 449.079 78.556 451.904 77.639 C 460.777 75.021 470.152 73.612 479.942 73.514 C 493.355 73.611 506.06 76.232 517.551 81.175 C 534.895 88.432 549.726 100.733 560.106 116.166 C 565.356 123.935 569.491 132.405 572.308 141.474 C 575.135 150.555 576.65 160.136 576.65 170.222 C 576.65 183.634 573.923 196.34 569.087 207.832 C 561.721 225.174 549.42 240.006 533.989 250.385 C 526.229 255.634 517.759 259.771 508.679 262.489 C 499.707 265.316 490.027 266.932 479.942 266.932 C 467.03 266.932 454.827 264.411 443.632 259.871 C 432.443 255.331 422.25 248.674 413.583 240.508 C 411.565 238.588 408.738 235.566 405.617 232.04 C 400.171 225.787 393.712 217.513 387.259 208.946 C 384.64 205.518 382.118 201.983 379.598 198.458 C 378.79 199.667 377.983 200.88 377.077 202.189 C 360.434 226.594 349.945 242.025 344.202 250.387 C 345.709 252.405 347.226 254.326 348.733 256.346 C 352.77 261.486 356.808 266.43 360.835 270.96 C 364.774 275.597 368.706 279.843 372.841 283.673 C 386.756 296.781 403.193 307.468 421.245 314.834 C 439.396 322.19 459.259 326.228 479.941 326.228 C 501.42 326.228 521.993 321.896 540.646 314.028 C 568.781 302.13 592.476 282.364 609.326 257.449 C 617.688 245.05 624.453 231.332 628.982 216.607 C 633.525 201.983 635.949 186.354 635.949 170.223 C 635.949 148.743 631.617 128.17 623.746 109.509 Z" style="filter: none; fill: rgb(255, 216, 2); stroke: rgb(0, 0, 0); paint-order: stroke; stroke-width: 14px;"/></g><text style="fill: rgb(255, 244, 0); font-family: Arial, sans-serif; font-size: 135.3px; white-space: pre;" x="95.956" y="210.648">dx</text></svg>