<svg xmlns="http://www.w3.org/2000/svg" version="1.1" xmlns:xlink="http://www.w3.org/1999/xlink" xmlns:svgjs="http://svgjs.dev/svgjs" width="500px" height="500px"><svg xmlns="http://www.w3.org/2000/svg" viewBox="0 0 500 500" xmlns:bx="https://boxy-svg.com" width="500px" height="500px"><rect x="413.845" y="205.711" width="48.054" height="144.794" style="stroke: rgb(0, 0, 0); stroke-width: 0px; fill: rgb(0, 123, 255); filter: none;"></rect><ellipse style="stroke: rgb(0, 0, 0); paint-order: fill; stroke-width: 0px;" cx="173.851" cy="245.268" rx="107.201" ry="107.201"></ellipse><rect x="472.254" y="140.365" width="51.92" height="211.376" style="stroke: rgb(0, 0, 0); stroke-width: 0px; fill: rgb(0, 123, 255); filter: none;"></rect><rect x="354.377" y="244.386" width="49.097" height="84.128" style="stroke: rgb(0, 0, 0); stroke-width: 0px; fill: rgb(0, 123, 255); filter: none;"></rect><path class="st0" d="M 642.494 183.315 C 630.232 154.417 609.862 129.894 584.181 112.537 C 571.402 103.91 557.262 97.047 542.088 92.368 C 527.014 87.587 510.907 85.091 494.28 85.091 C 472.964 85.091 452.49 89.253 433.784 96.846 C 432.22 97.463 430.769 98.083 429.318 98.813 C 412.479 106.193 397.091 116.587 383.895 128.959 C 379.633 133.01 375.582 137.272 371.522 142.053 C 364.356 150.264 356.977 159.725 349.801 169.285 C 348.349 171.254 346.786 173.335 345.335 175.316 C 341.386 180.715 303.648 236.014 296.999 245.89 C 293.67 250.873 289.721 256.486 285.458 262.618 C 284.524 263.968 283.49 265.429 282.454 266.88 C 275.38 276.961 267.482 287.566 260.204 296.925 C 256.57 301.595 252.927 305.959 249.81 309.603 C 246.593 313.338 243.68 316.353 241.599 318.331 C 232.667 326.746 222.162 333.608 210.631 338.288 C 199.091 342.967 186.514 345.565 173.206 345.565 C 164.061 345.565 155.23 344.315 146.918 342.032 C 142.655 340.885 138.494 339.433 134.443 337.667 C 116.559 330.176 101.282 317.499 90.574 301.594 C 85.175 293.596 80.91 284.865 77.999 275.507 C 75.195 266.148 73.533 256.283 73.533 245.888 C 73.533 232.064 76.345 219.071 81.327 207.113 C 88.919 189.239 101.597 174.066 117.503 163.255 C 125.501 157.845 134.229 153.692 143.588 150.78 C 152.936 147.866 162.812 146.213 173.206 146.213 C 186.514 146.313 199.091 148.811 210.631 153.481 C 222.163 158.26 232.667 165.02 241.599 173.436 C 243.68 175.415 251.629 183.582 254.846 187.226 C 260.459 193.773 261.786 194.942 268.444 203.784 C 271.043 207.315 274.452 212.63 277.051 216.263 C 287.028 201.719 303.962 176.561 313.107 163.355 C 311.554 161.274 309.991 159.204 308.437 157.123 C 304.276 151.814 300.114 146.729 295.964 142.049 C 291.801 137.269 287.852 133.006 283.59 128.956 C 269.248 115.435 252.308 104.423 233.701 96.841 C 214.994 89.247 194.512 85.086 173.206 85.086 C 151.069 85.086 129.865 89.561 110.539 97.773 C 81.642 109.933 57.21 130.304 39.852 155.975 C 31.225 168.765 24.373 182.995 19.593 198.068 C 14.914 213.247 12.418 229.255 12.418 245.891 C 12.418 268.028 16.883 289.232 24.995 308.456 C 37.255 337.457 57.626 361.889 83.196 379.245 C 96.087 387.873 110.227 394.725 125.4 399.505 C 140.472 404.185 156.582 406.681 173.208 406.681 C 194.514 406.681 214.997 402.519 233.703 394.937 C 252.309 387.345 269.147 376.331 283.491 362.923 L 283.591 362.821 C 287.855 358.873 291.803 354.498 295.965 349.718 C 303.13 341.505 310.51 332.055 317.686 322.494 C 319.138 320.514 320.701 318.534 322.151 316.565 C 326.1 311.054 377.765 235.282 382.019 229.152 C 382.963 227.801 383.999 226.35 385.032 224.889 C 392.108 214.91 400.004 204.203 407.282 194.855 C 410.916 190.176 414.56 185.81 417.676 182.176 C 420.894 178.432 423.808 175.416 425.888 173.438 C 434.82 165.023 445.326 158.263 456.857 153.483 C 459.668 152.346 462.47 151.413 465.382 150.468 C 474.527 147.77 484.19 146.317 494.28 146.216 C 508.104 146.316 521.199 149.018 533.042 154.112 C 550.918 161.592 566.204 174.27 576.902 190.176 C 582.313 198.184 586.575 206.914 589.478 216.261 C 592.392 225.62 593.954 235.495 593.954 245.89 C 593.954 259.714 591.143 272.809 586.159 284.654 C 578.567 302.527 565.889 317.814 549.984 328.512 C 541.986 333.922 533.257 338.185 523.898 340.987 C 514.651 343.901 504.674 345.566 494.28 345.566 C 480.972 345.566 468.395 342.968 456.856 338.289 C 445.324 333.609 434.819 326.748 425.886 318.332 C 423.806 316.353 420.892 313.238 417.675 309.604 C 412.062 303.159 405.405 294.632 398.754 285.802 C 396.055 282.269 393.456 278.625 390.858 274.992 C 390.026 276.238 389.194 277.488 388.26 278.838 C 371.107 303.991 360.296 319.895 354.377 328.514 C 355.93 330.594 357.494 332.574 359.047 334.655 C 363.208 339.953 367.37 345.049 371.52 349.718 C 375.58 354.497 379.632 358.873 383.894 362.821 C 398.236 376.331 415.177 387.345 433.783 394.937 C 452.49 402.519 472.963 406.681 494.279 406.681 C 516.416 406.681 537.62 402.216 556.845 394.106 C 585.843 381.844 610.265 361.471 627.632 335.792 C 636.25 323.013 643.223 308.874 647.891 293.698 C 652.573 278.625 655.071 262.517 655.071 245.891 C 655.071 223.753 650.606 202.549 642.494 183.315 Z" style="filter: none; fill: rgb(255, 216, 2); stroke: rgb(0, 0, 0); paint-order: stroke; stroke-width: 18px;"></path><text style="fill: rgb(255, 244, 0); font-family: Arial, sans-serif; font-size: 139.5px; white-space: pre;" x="98.518" y="287.556" svgjs:data="{&quot;leading&quot;:&quot;1.3&quot;}">dx</text></svg><style>@media (prefers-color-scheme: light) { :root { filter: none; } }
@media (prefers-color-scheme: dark) { :root { filter: none; } }
</style></svg>