<svg xmlns="http://www.w3.org/2000/svg" version="1.1" xmlns:xlink="http://www.w3.org/1999/xlink" xmlns:svgjs="http://svgjs.dev/svgjs" width="500px" height="500px"><svg xmlns="http://www.w3.org/2000/svg" viewBox="0 0 500 500" xmlns:bx="https://boxy-svg.com" width="500px" height="500px"><g transform="matrix(1, 0, 0, 1, 125.554008, 55.287994)"><ellipse style="stroke: rgb(0, 0, 0); paint-order: fill; stroke-width: 0px;" cx="43.582" cy="194.115" rx="94.585" ry="94.585"></ellipse><text style="fill: rgb(255, 216, 0); font-family: Arial, sans-serif; font-size: 135.3px; white-space: pre;" x="-29.51" y="235.145" svgjs:data="{&quot;leading&quot;:&quot;1.3&quot;}">dx</text><rect x="237.339" y="194.02" width="35.508" height="78.293" style="filter: none; stroke-width: 3px; stroke: rgb(255, 216, 0);"></rect><rect x="344.083" y="108.514" width="35.508" height="186.119" style="filter: none; stroke-width: 3px; stroke: rgb(255, 216, 0);"></rect><rect x="272.937" y="156.096" width="35.508" height="123.008" style="filter: none; stroke-width: 3px; stroke: rgb(255, 216, 0);"></rect><rect x="308.422" y="120.794" width="35.508" height="166.632" style="filter: none; stroke-width: 3px; stroke: rgb(255, 216, 0);"></rect><path class="st0" d="M 498.28 134.006 C 486.383 105.968 466.619 82.174 441.702 65.334 C 429.303 56.963 415.584 50.305 400.862 45.765 C 386.236 41.126 370.608 38.704 354.476 38.704 C 333.794 38.704 313.93 42.742 295.78 50.11 C 294.263 50.708 292.855 51.31 291.447 52.018 C 275.109 59.178 260.179 69.263 247.376 81.267 C 243.241 85.198 239.31 89.333 235.371 93.971 C 228.418 101.938 221.259 111.118 214.296 120.393 C 212.887 122.304 211.371 124.323 209.963 126.245 C 206.132 131.483 169.516 185.137 163.065 194.719 C 159.835 199.553 156.004 204.999 151.868 210.949 C 150.961 212.259 149.958 213.676 148.953 215.084 C 142.09 224.865 134.427 235.155 127.365 244.235 C 123.839 248.766 120.305 253 117.28 256.536 C 114.159 260.16 111.333 263.085 109.314 265.004 C 100.647 273.169 90.455 279.827 79.267 284.367 C 68.071 288.907 55.868 291.428 42.956 291.428 C 34.083 291.428 25.515 290.215 17.45 288 C 13.314 286.887 9.277 285.478 5.346 283.765 C -12.006 276.497 -26.828 264.197 -37.218 248.765 C -42.456 241.005 -46.594 232.534 -49.418 223.455 C -52.139 214.374 -53.751 204.803 -53.751 194.717 C -53.751 181.304 -51.023 168.698 -46.189 157.096 C -38.823 139.753 -26.523 125.032 -11.09 114.543 C -3.33 109.294 5.139 105.264 14.219 102.439 C 23.289 99.611 32.871 98.008 42.956 98.008 C 55.868 98.105 68.071 100.528 79.267 105.059 C 90.456 109.696 100.647 116.255 109.314 124.421 C 111.333 126.341 119.045 134.265 122.167 137.8 C 127.613 144.153 128.9 145.287 135.36 153.866 C 137.882 157.292 156.865 183.357 159.387 186.882 C 169.067 172.771 185.602 148.326 194.475 135.513 C 192.968 133.494 188.491 126.542 174.128 108.554 C 167.814 100.647 166.187 98.445 162.16 93.905 C 158.121 89.267 154.19 85.194 150.055 81.264 C 136.14 68.145 119.704 57.461 101.651 50.105 C 83.5 42.737 63.628 38.699 42.956 38.699 C 21.477 38.699 0.904 43.041 -17.847 51.009 C -45.884 62.807 -69.589 82.572 -86.43 107.479 C -94.801 119.889 -101.45 133.695 -106.09 148.32 C -110.63 163.047 -113.05 178.579 -113.05 194.72 C -113.05 216.198 -108.72 236.771 -100.84 255.423 C -88.95 283.561 -69.185 307.266 -44.376 324.106 C -31.869 332.477 -18.149 339.125 -3.428 343.763 C 11.196 348.304 26.826 350.725 42.958 350.725 C 63.63 350.725 83.503 346.687 101.653 339.331 C 119.705 331.965 136.042 321.278 149.959 308.269 L 150.056 308.17 C 154.193 304.34 158.024 300.095 162.062 295.457 C 169.014 287.489 176.174 278.32 183.137 269.043 C 184.546 267.122 186.062 265.201 187.469 263.291 C 191.3 257.944 241.428 184.426 245.556 178.479 C 246.471 177.168 247.477 175.76 248.479 174.343 C 255.344 164.661 263.005 154.272 270.067 145.202 C 273.593 140.663 277.128 136.426 280.152 132.901 C 283.274 129.268 286.101 126.342 288.119 124.423 C 296.785 116.258 306.979 109.699 318.167 105.061 C 320.894 103.958 323.613 103.053 326.438 102.136 C 335.311 99.518 344.686 98.109 354.476 98.011 C 367.889 98.108 380.594 100.729 392.085 105.672 C 409.429 112.929 424.26 125.23 434.64 140.663 C 439.89 148.432 444.025 156.902 446.842 165.971 C 449.669 175.052 451.184 184.633 451.184 194.719 C 451.184 208.131 448.457 220.837 443.621 232.329 C 436.255 249.671 423.954 264.503 408.523 274.882 C 400.763 280.131 392.293 284.268 383.213 286.986 C 374.241 289.813 364.561 291.429 354.476 291.429 C 341.564 291.429 329.361 288.908 318.166 284.368 C 306.977 279.828 296.784 273.171 288.117 265.005 C 286.099 263.085 283.272 260.063 280.151 256.537 C 274.705 250.284 268.246 242.01 261.793 233.443 C 259.174 230.015 240.182 204.637 237.662 201.112 C 236.854 202.321 225.784 218.627 224.878 219.936 C 208.235 244.341 207.822 244.632 202.433 253.194 C 215.946 271.858 221.76 278.823 223.267 280.843 C 227.304 285.983 231.342 290.927 235.369 295.457 C 239.308 300.094 243.24 304.34 247.375 308.17 C 261.29 321.278 277.727 331.965 295.779 339.331 C 313.93 346.687 333.793 350.725 354.475 350.725 C 375.954 350.725 396.527 346.393 415.18 338.525 C 443.315 326.627 467.01 306.861 483.86 281.946 C 492.222 269.547 498.987 255.829 503.516 241.104 C 508.059 226.48 510.483 210.851 510.483 194.72 C 510.483 173.24 506.151 152.667 498.28 134.006 Z" style="filter: none; fill: rgb(255, 216, 0); stroke: rgb(0, 0, 0); paint-order: stroke; stroke-width: 18px;"></path></g></svg><style>@media (prefers-color-scheme: light) { :root { filter: none; } }
@media (prefers-color-scheme: dark) { :root { filter: none; } }
</style></svg>